<?xml version="1.0" encoding="utf-8"?>
<!-- Generator: Adobe Illustrator 24.3.0, SVG Export Plug-In . SVG Version: 6.00 Build 0)  -->
<svg version="1.1" xmlns="http://www.w3.org/2000/svg" xmlns:xlink="http://www.w3.org/1999/xlink" x="0px" y="0px"
	 viewBox="0 0 640 480" style="enable-background:new 0 0 640 480;" xml:space="preserve">
<style type="text/css">
	.st0{fill-rule:evenodd;clip-rule:evenodd;fill:#C8C8C8;}
	.st1{font-family:'MyriadPro-Regular';}
	.st2{font-size:8px;}
	.st3{stroke:#000000;stroke-miterlimit:10;}
	.st4{fill:#FFFFFF;stroke:#000000;stroke-miterlimit:10;}
</style>
<g id="svg2" inkscape:version="0.43" sodipodi:docbase="D:\Processing\my308" sodipodi:docname="blank_malaysia_map.svg" sodipodi:version="0.32" xmlns:cc="http://creativecommons.org/ns#" xmlns:dc="http://purl.org/dc/elements/1.1/" xmlns:inkscape="http://www.inkscape.org/namespaces/inkscape" xmlns:rdf="http://www.w3.org/1999/02/22-rdf-syntax-ns#" xmlns:sodipodi="http://inkscape.sourceforge.net/DTD/sodipodi-0.dtd" xmlns:svg="http://www.w3.org/2000/svg">
	<defs>

			<inkscape:perspective  id="perspective2464" inkscape:persp3d-origin="372.04724 : 350.78739 : 1" inkscape:vp_x="0 : 526.18109 : 1" inkscape:vp_y="0 : 1000 : 0" inkscape:vp_z="744.09448 : 526.18109 : 1" sodipodi:type="inkscape:persp3d">
			</inkscape:perspective>
	</defs>

		<sodipodi:namedview  bordercolor="#666666" borderopacity="1.0" id="base" inkscape:current-layer="layer2" inkscape:cx="62.945852" inkscape:cy="315.05995" inkscape:document-units="px" inkscape:pageopacity="0.0" inkscape:pageshadow="2" inkscape:window-height="712" inkscape:window-width="1024" inkscape:window-x="-4" inkscape:window-y="-4" inkscape:zoom="1.1420137" pagecolor="#ffffff">
		</sodipodi:namedview>
	<g id="MalaysianStates" inkscape:groupmode="layer" inkscape:label="default">
		<path id="PLS" sodipodi:nodetypes="cccssscssccc" class="st0" d="M46.6,82.7c3-2.6,7.5-8.3,11.3-12.4c-1.4-0.3-2.6-0.7-3.6-1.3
			c0,0-0.7-5.4-2.2-5.7c-1.5-0.2-6.6-0.5-7.3,0.4c-0.8,1.1-0.8,8.8-1.3,9.2c-0.9,0.7-1.5,1.1-1.5,1.1s0.1,4.3,0.4,4.6
			c0.3,0.2,1.8,2.6,2,2.9c0.3,0.5-0.8,1.6-0.8,1.6l2.3,0.6L46.6,82.7z"/>
		<g id="PNG" transform="matrix(0.753837,0,0,0.675887,-11.99227,-149.5214)">
			<path id="path8677" class="st0" d="M87.3,386.3c0,0-0.3,7.8-0.1,9.1s3.2,5.9,2.7,6.6c-0.5,0.6-0.5,6.8-1.8,7.2
				c-1.3,0.4-1.6,2.3-1,2c0.6-0.3,7.6-0.4,8.5-2.3c0.9-1.9,0.6-15.7,0.6-15.7s0.8-4.9,0.5-5.9c-0.3-1-2.5-2.3-2.5-2.3
				s-4-0.6-4.8-0.4C88.5,384.9,87.3,385.5,87.3,386.3z"/>
			<path id="path8679" class="st0" d="M76.3,389.2c5.2,0,6.6,0.9,6.6,0.9s1.6,3.9,1.5,4.8c-0.1,0.9,1.8,3.7,0.4,4.5
				c-1.4,0.9-6.4,3.4-7.3,2.8c-0.9-0.6-1.1-3.9-1.1-3.9S74.9,392.1,76.3,389.2z"/>
		</g>
		<g id="KDH" transform="matrix(0.753837,0,0,0.675887,-11.54021,-149.2118)">
			<path id="KDH" sodipodi:nodetypes="cccsssscscssssccssccccccccccccc" class="st0" d="M77.5,344.9l16.3-20l1.6-0.2
				c0,0,7.9,3.6,9.1,3.9s3-2.9,4.6-3.2c1.6-0.4,3.2,3.2,3.2,2.9s3.4,2,3.8,2.5c0.4,0.5,1.4,9.6,1.4,9.6s5.9-0.2,6.1-1.4
				c0.2-1.3,3.4,1.4,3.4,1.4s3.8-0.2,4.3,0c0.5,0.2,3,3.9,1.1,7.3s2.1,0.2,0.4,6.4s5.7,5.3-3,10c-5,2.7-1.4,0.5-3.5,6.9l-1.6,3.9
				c0,0-1.9,5.1-3.2,5.7c-0.4,0.2,0.7,2.5,1.1,4.1c0.2,0.9-5.5,8.4-5.5,8.4c-4.2,4-7.2,5.6-10.5,7.9l-3.4,8
				c-1.4,0.9-2.9,1.3-4.3,0.7c-1-0.2-1.8-0.8-2.3-2l0.7-4.5c-0.1-5-0.6-8.5-0.2-15l0.4-2.9c-0.2-0.7-0.3-1.4-3.8-2.5
				c-2.6-0.6-5.2-1.2-5.9,0.5c-2.2-0.9-3.1-3.8-4.5-6.1l1.8-5.2C85,372.2,87.5,359.1,77.5,344.9z"/>
			<path id="path8683" class="st0" d="M47.5,331.3c-1.4,1.8-1.8-0.7-1.4,2.1c0.4,2.9,2.1,8.2,2.1,8.2l1.8,0.7l3.9-1.4l4.6-0.4
				l1.4-2.9l1.1-3.2l-1.4-2.1c0,0-2.5-3.2-4.6-3.2s-2.9,1.1-2.9,1.1L47.5,331.3z"/>
		</g>
		<path id="MLK" sodipodi:nodetypes="ccccccccccccsc" class="st0" d="M128.7,240.5c2.1,0.9,4.1,2.6,6.2,4.1c4.2,1,7.3,2.2,14.3,5.1
			l2.4-3.6l0.8-0.7l-1.1-2.4c0.2-2.7,1.5-5.3,2.4-8c-4-1.5-6.1-2.5-7.3-3.4l-4.3,0.7l-5.1-0.7l-4.3,0.5l-4,1.7c0,0-2.8,2.4-2.4,3.6
			C126.8,239.3,129,241,128.7,240.5z"/>
		<path id="JHR" sodipodi:nodetypes="cccccssscccccccccccccccccccccsscsccccccccc" class="st0" d="M162.4,258.4
			c2.3,0.7,2.2,3.3,3.8,2.9l1.6,1.7c0.8,0.6,1.9,0.7,3.5,0.2l8.7,4.8c0,0,8.5,2.5,8.8,3.7c0.3,1.2,2.4,9.4,5.4,9.2
			c3-0.2,7.8-6.8,13.7-7.2c5.9-0.5,4.8,0.4,4.8,0.4l3.1,0.7l1-4.5c0.9-0.3,1.8-1.8,2.5,1l-1.3,1.4l1.3,2.4c0.4,1.5,1.4,2,2.5,2.4
			c1.7,2.4,4.1,0.5,6.2,0.2c1.6-2.1,2.7-4.9,2-7.7c-1.5-5.1-4.2-9-6.7-13c-5-11.7-5-11.6-2.7-6c-1.1-2.4-2.5-4.8-4.8-7.2
			c-1.2-5.1-3.8-7.5-6.5-9.7c0.4-1.6,1.2-2.9-0.8-6.3c-1.8,0.3-1.2-1-2.4-1.6c-4.6-2.1-4-1-5.5-1.6c-1.3,0.5-2.1,2.3-2.6,5.1
			c1.5,1.4,1.9,1.7,2.4,2.3c-0.3,0.5-1,1.3-2.2,1c-7.2-5.1-6.8-3.9-10.2-5.9c-2.2,0.4-2.8,0.2-9.2,3c-1.5-0.8-5.9-2.7-6.2-2.9
			c-2.6-1.1-4.8-4.1-6.6-5.8c-2.4-2.3-4.3-3.2-6.4-2.9c-0.4,1.5-1.7,2.7-2.3,4c-1.1,2.7-1.5,5.5-3,7.4c0.2,1.8-0.5,2.6-0.7,3.5
			l1.9,1.1l-2.6,7.8l1,2.9l-3.7,5.1l2.4,2.5l2.3,1.1C156.4,256.4,157.3,259.6,162.4,258.4z"/>
		<path id="NSN" sodipodi:nodetypes="ccccccccccccccccccccccccccccccccccc" class="st0" d="M124.7,236.9c-2.4,0-3.5,0.2-4.1-0.5
			c-0.2-1.1-0.8-2.7-2-4.8l-0.4-1.9c-1.2-0.5-2.2-0.8-3-0.9l0.1-1.5l1.3-3.1l0.6-2.9l-0.4-4l6.9-1.6c0.3-2.2,1.1-3.5,1.8-5.1V210
			l0.4-1.6c0-1.7-0.1-3.4-0.1-5.1l0.9-1c2.9-0.2,3.4,0.9,4.7,1.5l1.4,0.6l1.9,0.2c1.3,0.1,2.5,0.4,3.8,0.8c1.9-0.3,3.9,0.9,5.8,1.5
			c2.1,1.6,5.4,3.5,6,4.8c3.8,2.4,5.2,2.9,7.2,4.3l1.7,1.3l-1.2,1.1c-0.9,1-2,1.8-2.2,3.7l-1.6,4.7l-1.3,2.5l-0.8,3.5l-2.5-0.5
			l-3-1.8l-4.5,0.8l-4.8-0.6l-4.3,0.5c-2.1,0.4-3.4,1.2-4.8,2C126.6,234.5,125,236,124.7,236.9z"/>
		<path id="SGR" class="st0" d="M78.5,178.9l-4.1,0.7l-0.7,0.7l-0.5,0.6l1.1,1.3l3.8,2.4l5.5,4.3l0.7,2.8l2.4,2.7
			c0,0,7.3,6.9,7.7,7.3c0,0,0,0,0,0c0.1,0.4,2,5.2,2,6.3c0,0,0,0,0,0.1c0,0,0,0,0,0c0,0,0,0,0,0c-0.1,0.9,1.1,3,1.1,3
			c0,0-0.5,2.4-1.3,3.1c-0.8,0.7-2.3,1.6-2.3,1.6v2.8L96,220l3.1,0.8c0,0,4.7,2.9,5.1,5.2c0,0,5.8,2.3,7.2,2.4c1,0.1,2-0.1,2.3-0.3
			c0,0,0,0,0,0c0,0,0,0,0,0c0,0,0,0,0,0c0,0,0,0,0,0c0,0,0,0,0,0l1.9-3.7l0.6-2.8l-0.4-4.1v-0.7l7.4-1.8l1.1-3.8l0.7-2.4v-6.3
			l1.1-1.2l-4.6-0.3l-3.1-3.6l-1.1-1.3l0.9-1.7l-0.9-2.2l1.3-3.5c0,0-0.3-1.5-1.3-2.8c-1.1-1.3-2.6-2.7-2.6-2.7l-1.2-0.6l-2.4,0.3
			l-2.8,2.3l-1.2,0.3l-2.4-0.8l-4.7-2.9l-1.5,0.3l-0.3,2.7l-0.7,0.8h-1.6l-3.5-0.6l-5.5-1.8l-1.3-0.6h-2.2l-2.2-1.6l-1.5-1.4
			L78.5,178.9z M114.7,198.7c0.3,0.4,0.3,0.8,0.7,1.5c0.2,0.3,0.4,1,0.6,1.3c0.6,0.9,0.7,1.4,0.9,2c0.5,5.5-2.1,4.4-3.7,3.5
			c-1.4-2.9-1.6-4.2-1.8-5.9C112.1,199.2,113.9,199,114.7,198.7z M115.9,209l2.6,1.3l2,2.5l-0.9,0.8l-2.9,1.3l-2.5-0.9v-3.6
			L115.9,209z"/>

			<path id="PRK" sodipodi:nodetypes="ccscccsccsccccccccccccccccccscccccccscccsccccccccccccccccccccccccccccccccccccccccccccc" class="st0" d="
			M73.1,179.3l-3.2-1.4c0,0-1.3-4.8-0.9-5.3c0.4-0.5,0.7-0.6,0.7-0.6l1.5-0.7l-0.4-2.5c0,0-3.4-2.1-4.2-1.6
			c-0.8,0.5-2.8-2.7-2.8-2.7l-1.6-3.6c0,0,2.6-7,2-8.9c-0.5-1.9-1.3-3-1.3-3v-1.4c0,0,2.2-7.4-5-10.4l-2.4-1.9l-1.7-5.7l1.9-0.2
			l5.1-1l2.2,0.8h3.1l1.3-1.3c0-1.6-0.2-3.2,2-4.8c2.4-1.6,4.8-3.1,7.3-4.7c2.4-1.9,4-4.8,6.1-7.2l-0.9-3.1l2-3.4l1.2-3.1l1.9,1.8
			l1.9,1.4c0,0,2.6-0.4,3-1s1.5-4.3,1.5-4.3s4.7-1.8,4.8-1.1l3.5-2.4c1.7,1.2,3.8-0.5,5.8-1.3l2.2,0.2c2.5,0.6,3.8,2.7,4.2,4.6
			l-1.7,1.3c0,0-0.3,0.4,0.4,1.1c0.7,0.7,0.9,3.6,0.9,3.6c0.2,2.9,0,3.9-0.1,6.9l2,0.8c1,0.2,0.4,4.5-0.7,4.6
			c-0.4,0-3.6-0.2-3.6-0.2l-2.2,0.5l-1.3,1.6l-0.4,1.6l-1.5,0.2l-1.5,4l-0.3,4.8l-1.7,2.1l-0.1,2.2l0.9,1.7l-1.2,1.7l-0.7,2.1
			l-2.8,3.9c0,0-0.8,2.5,0.3,4.8l1.3,1l-0.4,2.1l-0.7,2.4c-1.2,1,0.1,1.7,1.9,2.7c0.5,0,1,0,1.5,0c0.4,1.3,0.8,2.7,1.2,4
			c0.4,0.5,0.8,1,1.2,1.6c0.1,0.5,0.2,1,0.3,1.6c0.4,0.6,0.9,1.3,1.3,1.9c0.4,0.5,0.9,1,1.3,1.6c0.4,0.3,0.8,0.6,1.2,0.8
			c0,0.8-0.1,1.5-0.1,2.3c0,1.2,0,2.3,0,3.5c0.3,1.3,0.6,2.7,0.9,4l1.1,4.5l-3.2,2.1c0,0-7.1-2.9-6.9-3.7l-3.2,0.6
			c0.6,1.8-0.1,2.3-0.5,2.9c0,0-2.3-0.4-2.3-0.8l-1.3,0.2l-2.3-0.5l-2.8-0.8l-0.8-1h-2.3h-1.5l-1.3-2.1l-0.7-0.6l-2.2-0.5l-3.9,0.6
			L73.1,179.3z"/>
		<path id="KTN" sodipodi:nodetypes="ccccccccccccccccccccccscccccccccccccccccccccccccccccccccccccccccc" class="st0" d="
			M113.2,100.9l2.6-1.8l2.6,1.1c1.4-1,4.4-1.9,3.8-2.9c1.2-2,0.1-3.5,0.4-5.2l6.6-4.9l-0.1-2.9l1.2-1l1.2-1.4l2.8,0.5l5.9,0.6
			l2.2,1.7l3.1,2.5c0.8-0.1,4.7,7.5,3.9,8.3l2.8,2.5l-2.2,1.2c-1.4,0.9-2.9,2.1-5.4,5.2l0.3,3.7l0.9,1.8l-1.2,2.7
			c0,0,2.3,5.1,1.5,10.3c0,0,0.5,2.5,4.2,4.7c0,0,0,5.9,0.5,6.9c0.5,1,5.1,3.9,5.1,3.9l0.7,2.8l-2.3,2.1h-2.7l-2.2,0.1
			c0,0-7-3.1-7.3,2.1l-5.7,0.2l-4-4.7c-2.1,0.6-4.6,2-6.1,0.5l-1.2,0.2l-0.9,1.2v2.5l-1.1-0.5l-2-2.1l-2.3-1.9l-1.2,1l-1.1,4.1
			l-2.3,2.1l-3.6,1.9l-3.8-1.8l-3.1,1.4l-2.6-1.3l-1.9-0.2l-0.9-2.1v-1.4l2.8-3.5l0.8-2.3l1.7-1.6l0.3-1.8l-0.9-1.3l0.4-1.4
			l2.7-10.3l4-3.9h3.8l1.5-0.1l1.6-4l-0.1-1.9l-2.6-1.3c0,0,0.3-4-0.1-4.5l-0.1-2.1l0.4-2.1L113.2,100.9z"/>
		<path id="TRG" sodipodi:nodetypes="ccccccccccccccscsccccccccccccccccccccccc" class="st0" d="M153.2,98.6l3.4,1.9l2.8,3.1l5,3.5
			l5.9,2.8l5,3.9c1.8,1.5,3.3,3.6,4.7,6c1.9,3.3,3.3,4.9,5.8,10.3c2.3,3.2,5.2,6.3,6.2,9.8c1.2,7,1.2,13.9,1.3,20.9l-1.7,3.7
			l-5.5-0.1c-1.1,0.7-1.9,1.5-1.9,3.1l0.1,5.3c0,0,0,2.1-0.5,2.1s-3.8-4.6-3.8-4.6c-1.3,0.4-5-2.7-5.8-2.8c-4.6-0.2-1.7,0.9-5.8,0.6
			l-0.7-1.8c-0.7,0.1-0.3-7,5-10l-1.9-3.1l-3.9,0.1l-0.8-1l0.1-7.4l-1.7-1.2l-2-0.4h-1.9l-2.6-1.7l-0.4-2.3l-1.1-2.5l-4.3-3
			c0,0-1.1-3.5-1.1-6.6l-3.2-3.4l-0.5-3.3l-0.3-4.8l-1.2-2.9l1.3-3l-1.3-2.9l0.1-2.3C146.1,104.6,150.4,98.7,153.2,98.6z"/>

			<path id="PHG" sodipodi:nodetypes="cccccccccccccccccccccccccccccccccccccccccccccccccccccccccccsccccccccccccccccccccccccccccccccccccccccccccccccccccc" class="st0" d="
			M199.6,223.1l-5.1-4.4l-2.1-4.4l0.2-3.6l0.2-5.5v-2.2c0,0-1-7.7,1.1-11.4l-5.5-7l-0.2-2.9l0.8-2.2l0.4-3.4l2.1-2.2v-1.9L191,170
			l-0.8-2.4l1.1-2.4h-4.9l-1,1.5l-0.4,8.7l-1.5,0.9l-1.7-1.2l-2.3-3.4l-2.5-1.4l-2.9-1.7l-2.3,0.2l-2.1,0.7l-2.5-0.5l-1.1-1.9v-1
			l0.6-3.8c0,0,2.1-5.5,4.4-6.3l-1.5-2l-3.2,0.3l-2.1-1.2v-2.2l0.4-4.8l-0.8-1.7l-3.6-0.2l-1.7-0.7l-1.5-1l-2.1,1.2l-1.5,1l-1.7-0.2
			l-1.1,0.2l-5.1-1.2l-1.5,0.3l-0.2,1.9l-2.1,0.9h-3.4l-2.5-0.3l-2.9-2.9l-1-1.2l-4,0.9h-2.5v1.9l-0.8,2.2l-1.3-0.3l-2.3-1.5
			l-1.5-1.7c0,0-1-2.4-1-1s0,3.6,0,3.6l-2.7,2.2l-2.3,1.5l-2.9,0.9h-2.5l-2.1-1.2l-2.7,1.5l-2.7-1.2l-1,4.8l2.1,1.2l1.1-0.2
			l-0.2,1.9l2.9,5.8l1.5,2.6l2.1,1.9v2.7l-0.2,3.4l1.3,5.1l1,2.6l2.7,0.2l1.9,1l2.5,3.2l1.3,2.9l-1.1,2.9l0.4,3.4l0.4,1.5l1.7,2.4
			l1.9,0.9h3.6l1.7,1.4l2.9,0.9l1.7,1.2l4.4,0.5l2.7,0.2l2.1,0.7l1.9,0.3l2.3,1.5l3.4,2.9l12.8,8.4l2.9,1.7l1.7,1l1.5,1.7l2.3,2.6
			l2.3,1.5l5.5,2.2l8.2-2.7l3.2,0.2l2.7,1.9l4,2.9v-0.7l-0.2-2.4l1.5-2L199.6,223.1z"/>
		<path id="LBN" class="st0" d="M443.5,212l-1.3,1.2l-1.7,3.6l1.5,1.5l1.5,1l2.7-1.7l1.7-1.7l-0.8-2.7l-1.3-1.2H443.5z"/>
		<g id="SBH_1_" transform="translate(-3.588813e-6,3.205593e-6)">

				<path id="SBH" sodipodi:nodetypes="ccccccccccccccccccccscccccccccccccccccccccccccccccccccccccccccccccccccccccccccccccccccccccccccccccccccccccccccccccccccccccccccccccccccccccccccccccccccccccccccccccccccccccccccccccccccccccccccccccccc" class="st0" d="
				M453.9,230l8,1l1.5,3.1l0.4,2.4v2.7l-3.4,2.4l-0.8,2.7v4.4l0.4,3.1l4.2,3.8l0.4,2l-1.1,1.7l-0.4,2l2.7,1l2.7-1h2.3l1.1-1.5l2.1-2
				l0.2-2l4.6,1.7c0,0-0.2,1,0.6,1c0.8,0,2.5,0,2.5,0l4.8-2.9h5.9l1.9-0.7l4.9,3.9l3.8-3.4l3,0.9l2.9-0.3l3.6-0.2l4.6,0.9h4.4
				l3.4-0.3l6.1,0.5l2.1-0.2l3.2,0.7l4.2,1.9l1.9,2.4l5.9,0.3l1.7-0.2l1-1.2l0.2-2.9l0.2-2.9l2.1-1.2l3.4,2.7l-3,0.3l-1.9,1.7
				l1.1,1.9l4.2,0.7h3h4.4l-0.2-1.5l-1.3-1l3.8,0.7h2.5l5.9-1l10.1-1.7l4.2-1h2.5l1.7-1l3-3.4l-2.1-3.6l-3.6-0.9l-1.1-2l-2.7-1.5
				l-3-1l-3-1.4l-4.4-6.5l-0.2-1.2l2.3-1.7l5.5-2.2l2.3,2.7l3.4,0.2h3h3l1.9,0.5l2.3-1.4l10.5-3.2l11.4-2.9l2.1-2.4l0.6-2.2
				l-0.2-6.3l-1.9-2l-1.1-1.5h-7l-5.3-0.2l-1.7-1.7l-4.4-2l-3-1.7l-4-3.2l-2.3-1.5l-5.3-2.9l-4-1.2l-4.8-1l-4.4-0.2l-1.1,0.7
				l-0.6,2.2l-1,1.4l-2.7,0.9l-2.1-0.2l-2.1-0.5l-0.2-1.2l3.2-0.5l2.1-0.2l1.7-1.2v-1.5l-1-3.8l-2.7-3.4l-1.7-1.7l-3.2,1.9l-1.7,1.5
				l-1.5,0.2l-1.3,0.3l-2.3,0.3v1.9l-1.7,0.3h-1.7l-1.5-0.9l1.7-2.4v-1.5v-2.2l-1.1-2l-1-1.4l1.1-1.4l4-1l-0.2-9.2l-2.3-1.7
				l-2.1-0.9l-1.9-1.2l-2.9-3.8l-1.9,0.3l-2.1,2.9l-1.3-1l-2.7-1.9h-2.3l-1-1.5v-3.2l-1.1-1.4l-1-1l0.8-2.9l-0.2-2l-1-1.4l-2.5-0.9
				h-2.7l-2.7,0.5l-1.1,1l-1.7,2.4l0.8,2.6l-0.4,2l-1.7,1.7l-1.7,3.1l-2.5,1l-2.1,1.2l-0.6-0.7l1.1-3.6l1.3-2.6l-1.5-2l0.8-3.9
				l-1.9-2.7l-1.5-0.2l-2.1,0.5l-2.5,1.9v1.5l-1.7,1c0,0-1.7,6.5-1.3,7.5c0,0-5.1,4.1-5.5,5.1c0,0,3.2,1.9-7.8,7.7l-1.9,5.1
				l-2.5-0.3l-2.1,0.3l-1,2.4l-2.5,1.7l-0.4,2l0.4,1l-0.2,1.7l-2.1,5.1l-1.1,3.2l-1.9,0.7l-2.7,1.2l-0.6,2l-1.3,4.4l-2.3,1.9h-4.8
				h-7.2l-3.2,1.4l-2.5,2.4l-1.9,2.9l-1,2.7v1.4l2.1,1.2l2.9,2.2l2.1,1l1.1,1.5l-0.8,1.5l-0.8,2.4l-3.2,1.7L453.9,230z"/>
			<path id="path20955" class="st0" d="M525.1,137.2l0.5,6.8l2.4,0.4l3.1-1.4l3-1.6l1.6-0.4l0.3-3l-0.3-3.3l-1.6-0.8l-1.6-0.2
				l-4.4,1.7L525.1,137.2z"/>
		</g>
		<path id="SRW" class="st0" d="M451.6,230l2.9,1.7h5.3l1,1.2l1,1l0.4,1.9l0.2,2.2l-2.7,2l-0.2,1.7l-0.6,1.4l-0.6,2.4l-0.2,2.9
			l0.2,3.4l1.9,2l3.2,2l-0.8,1.9l-1,2.4l0.2,1.5l1.9,2.2l0.8,0.2l1,0.3l-1,4.1l-2.3,3.8l1.1,2v1.7l-1.3,3.6l0.6,2.7l-0.6,0.9
			l1.3,2.6l-0.4,1.5l0.8,2l-0.4,2.4l-2.5,1.4l-1.5,7.2l1.1,2.6l-0.6,1.9l-3,2.7c0,0,1.1,1.2,0,1.4s-4,1-4,1h-2.3l-1.9-0.2l-2.5,0.7
			l-2.3,1.9l-1.7,2l-1.7,2.2v2.7l-0.6,2.4l2.9,1.7l3,1.2l0.4,1.9l-0.4,2.9l-3,1.7l-1.5,0.2l-3.2,3.1l-2.9,0.7l-1.7,1v2l-3.4,0.9
			h-2.7l-1,3.4l1.5,1.7v1.4l2.3,1.2l-1,1.5l-0.2,4.4c0,0-1,1.9-1.7,1.9c-0.8,0-3.2,1.2-3.2,1.2l-1,3.8l0.2,1.7l-2.9,3.6l-1.3,1.5
			l-1.1,1.4l-0.8,3.8c0,0-0.8,0.5-1.9,0.7s-2.9-0.5-3.8-0.9c-1-0.3-4.4-2-4.4-2l-4,1.4l-4.2,1.4l-6.5-0.9l-4.4,0.7l-2.3,2.2
			l-4.2,3.8l-5.5,3.2l-5.5-3.4l-4.4,0.3c0,0-3.2,0-4-0.5c-0.8-0.5-3.4-2.2-3.4-2.2l-5.1-0.2c0,0-1.5-2.2-2.5-2.2c-1,0-3.4,0-3.4,0
			h-1.5l-2.5-1.5l1-2.6l2.1-1.7l-5.7,0.5c0,0-1.3,0.2-2.5,0.5c-1.1,0.3-1.9,0.3-3,0.3c-1.1,0-6.3-0.3-7.4-0.3
			c-1.1,0-5.9-0.9-5.9-0.9l-2.1,2.9c0,0-4.9,0-5.7,0c-0.8,0-3,2-3,2l1.3,2.6l-2.9,3.1l-1,5.1l-4,0.7l-5.1,0.9l-2.5,2.9
			c0,0-2.1,2.7-2.9,2.6c-0.8-0.2-5.9-1.2-5.9-1.2s-1.7,0.5-3,0.7s-3,1.4-3,1.4l-2.9-1l-2.1,0.5l-2.5,0.2l-6.7-3.4l-9.3,2.6l-6.1,0.3
			l-2.7,3.8l-6.3,1.2l-4.2,1.9c0,0-3.6-0.5-4.9-1.4c-1.3-0.9-3.4-1.7-3.8-2.4c-0.4-0.7-1.3-2.2-1.3-2.2l-3.6-0.2l-1.9-2.2l-2.5-4.1
			l-3.6-1.7l-4.4-1.5l-1.1-3.6c0,0-2.3-1-2.3-1.7c0-0.7-2.3-1-2.3-1h-2.9l-8.9-9.9v-5.3l-3-1.7l-2.1-3.1l0.8-2.9l5.1-4.3l1.7-1.2
			l0.2,2.9v1.7l2.3,2.4l4.6,1.7l2.9,2l2.7,2.9h6.7h5.7l1.1-0.5v-2.4l3-1.7l0.2,0.9l2.5,1l1,1.5l3.6-0.2l2.1,0.3l0.2,2.6l-0.2,2.2
			l3,0.9l4.8,1.2l1.3,0.2l3-0.9l4.6,1.7l3,1.2l-1.3-3.8l0.6-2l2.1-1.2l2.3-0.3l-0.2-1.9l0.2-2.2l6.1-11.8l-2.7-1.5l0.2-1.9v-1v-3.1
			l1-5.3l2.5-1l2.1,0.5l4.4,2.2l1.7,0.2l-0.8-2.6l-0.4-1.9l0.2-1l-1.1-1.4v-2.7l0.8-3.2l1.1-1l10.3-6.1l7.2-1.5h4.6l2.7-0.2l35.8-8
			l7.6-2.2l1.9-1.9l1.1-2.7l1-1.5l8.8-6.8l7-11.6l4.4-2.9c0,0,19.8-13.8,19.8-21.3l0.6-4.1c0,0-0.6-1.9-0.6-2.7
			c0-0.9,0.2-2.6,0.2-2.6h7l6.3,0.5l0.4,2.4l2.5,2.4l2.9,5.6v2.9h4l0.4,2l1.9,2l2.3,1.7l2.1,2l2.1,0.3l4-1.5l1.1-2.2l0.2-3.2
			L425,255l2.5-2.2l-3-2.2l0.2-3.2l-1-5.5l-1.5-1.9l2.9-2.7l3.6-1.5l4.9-1h1.5l3,2.9l-1,2.2l0.2,3.9l1.9,5.3l2.7,2.4l1.9,1.2
			l4.9,1.2l-0.6-3.1l-2.5-4.4c0,0,0-1.9,0-2.6s-1.3-3.9-1.3-3.9l-2.7-3.8l-1.7-2.4l-0.4-1.7l2.1-1.9l3.2-0.7l2.1,0.3l1.1,1l1.7-0.2
			L451.6,230z"/>
		<path id="KUL" class="st0" d="M113.5,199.7l-0.9,1.1l0.1,0.9l-0.1,0.9v1.1l1,2.9l1.2,0.3l1.1-0.9l0.4-2l-0.3-1.4l-0.6-1.1
			l-0.1-1.3L113.5,199.7z"/>
		<path id="PJY" class="st0" d="M114.9,210.8v2.2l1.7,0.9l2.5-0.9v-0.9l-1.7-1.7L114.9,210.8z"/>
	</g>
</g>
<g id="Layer_2">
	<text transform="matrix(1 0 0 1 6.8161 124.1377)" class="st1 st2">Penang</text>
	<line class="st3" x1="48.6" y1="73.3" x2="48.6" y2="51.1"/>
	<text transform="matrix(1 0 0 1 40.1046 50.0132)" class="st1 st2">Perlis</text>
	<text transform="matrix(1 0 0 1 15.1135 103.7837)" class="st1 st2">Kedah</text>
	<line class="st4" x1="85.1" y1="148.9" x2="42" y2="162.8"/>
	<line class="st3" x1="38.4" y1="101" x2="68.2" y2="99.1"/>
	<line class="st3" x1="53.7" y1="117.7" x2="34.5" y2="122.4"/>
	<text transform="matrix(1 0 0 1 21.7216 165.3106)" class="st1 st2">Perak</text>
	<line class="st4" x1="102.4" y1="196.7" x2="60.9" y2="199.7"/>
	<text transform="matrix(1 0 0 1 29.2026 201.9092)" class="st1 st2">Selangor</text>
	<line class="st3" x1="68.2" y1="228.5" x2="114.4" y2="203.3"/>
	<text transform="matrix(1 0 0 1 19.6441 230.9326)" class="st1 st2">Kuala Lampur</text>
	<text transform="matrix(1 0 0 1 23.6456 254.2577)" class="st1 st2">Negeri Sembilan</text>
	<line class="st3" x1="137.1" y1="219.6" x2="81.6" y2="252.1"/>
	<path class="st3" d="M142.7,240"/>
	<line class="st3" x1="142.7" y1="240" x2="109.4" y2="270.1"/>
	<text transform="matrix(1 0 0 1 80.6224 272.6867)" class="st1 st2">Malacca</text>
	<line class="st3" x1="188.5" y1="249.7" x2="162.4" y2="293.6"/>
	<text transform="matrix(1 0 0 1 152.9577 300.4948)" class="st1 st2">Johor</text>
	<line class="st3" x1="149.8" y1="186.5" x2="208.5" y2="186.5"/>
	<text transform="matrix(1 0 0 1 209.961 188.6976)" class="st1 st2">Pahang</text>
	<line class="st3" x1="169.6" y1="136.7" x2="218.1" y2="136.7"/>
	<text transform="matrix(1 0 0 1 219.1027 139.3953)" class="st1 st2">Terengganu</text>
	<line class="st3" x1="127.5" y1="115.9" x2="137.1" y2="66.8"/>
	<text transform="matrix(1 0 0 1 122.0315 65.0213)" class="st1 st2">Kelantan</text>
	<line class="st3" x1="373.6" y1="326.3" x2="328.4" y2="255"/>
	<text transform="matrix(1 0 0 1 313.9679 253.0332)" class="st1 st2">Sarawak</text>
	<line class="st3" x1="530.6" y1="215.7" x2="470.7" y2="151.2"/>
	<text transform="matrix(1 0 0 1 459.3445 148.1968)" class="st1 st2">Sabah</text>
</g>
</svg>
